<svg id="svg" xmlns="http://www.w3.org/2000/svg" width="245.89" height="731.44" viewBox="0 0 245.89 731.44">
  <title>svg-illustrator</title>
  <circle cx="122.95" cy="693.69" r="37.75" fill="#283fff"/>
  <path id="e-letter" d="M291.94,660.79h11v4.48H297v1.38h5.59v4.18H297v1.49h6.34v4.48h-11.4Z" transform="translate(-174.69 -55.22)" fill="#ffaf20"/>
  <path id="z-letter" d="M288.88,643.21l7.95-9.35h-7.62V628h16.94v5.16l-8.45,10h8.69v6.09H288.88Z" transform="translate(-174.69 -55.22)" fill="#283fff"/>
  <path id="i-letter" d="M292.43,587.61h10.42v29H292.43Z" transform="translate(-174.69 -55.22)" fill="#ffaf20"/>
  <path id="n-letter" d="M277.52,536.61H292l12.33,21.92h.25L304,536.61h13.8v43.23H302.92L291,559.2h-.24l.61,20.64h-13.8Z" transform="translate(-174.69 -55.22)" fill="#283fff"/>
  <path id="a-letter" d="M285.22,461.33h25.14l27.43,70.35H312.05l-3.68-10.33H286l-3.48,10.33h-25Zm12.22,24.54-5.77,17.39H303.1Z" transform="translate(-174.69 -55.22)" fill="#ffaf20"/>
  <path id="g-letter" d="M305.46,471.23a65,65,0,0,1-22.32-3.73,52.16,52.16,0,0,1-17.8-10.7,49.56,49.56,0,0,1-11.84-16.86,59,59,0,0,1,0-44.21,50.91,50.91,0,0,1,11.77-16.94A52.2,52.2,0,0,1,282.78,368a60.24,60.24,0,0,1,21.53-3.81A66,66,0,0,1,326.92,368a46.68,46.68,0,0,1,17.44,10.62l-19.95,24a24.48,24.48,0,0,0-7.47-6,23,23,0,0,0-10.62-2.22,21.16,21.16,0,0,0-15.07,6.39,24,24,0,0,0-6.75,17q0,10.62,5.53,17.29t17.73,6.67a28.83,28.83,0,0,0,4.45-.35,11,11,0,0,0,3.58-1.08v-7.75H299.43V405.78h46.65v55.55a53.31,53.31,0,0,1-8.25,3.94,82.11,82.11,0,0,1-9.91,3.09,107.46,107.46,0,0,1-11,2.08A85.18,85.18,0,0,1,305.46,471.23Z" transform="translate(-174.69 -55.22)" fill="#283fff"/>
  <path id="r-letter" d="M227.21,229.89h66.4a112.79,112.79,0,0,1,22.53,2.28,56.93,56.93,0,0,1,20,8.06,43.67,43.67,0,0,1,14.26,15.45q5.44,9.69,5.45,24.28a45,45,0,0,1-6.95,24.93q-7,10.77-20,16.65L368.07,384H308.55L279,328.94H277.5V384H227.21ZM277.06,295h10.16a41.78,41.78,0,0,0,5.72-.43,17.76,17.76,0,0,0,5.83-1.85,13.15,13.15,0,0,0,4.54-3.92,10.93,10.93,0,0,0,1.84-6.64,12.21,12.21,0,0,0-1.51-6.53,9.79,9.79,0,0,0-3.89-3.6,15.69,15.69,0,0,0-5.19-1.52,44.6,44.6,0,0,0-5.18-.33H277.06Z" transform="translate(-174.69 -55.22)" fill="#ffaf20"/>
  <path id="o-letter" d="M174.69,170.83q0-26.55,9.38-48a106.62,106.62,0,0,1,25.77-36.4,114.63,114.63,0,0,1,38.9-23.12,150.17,150.17,0,0,1,97.48,0,116.34,116.34,0,0,1,39.06,23.12,105.56,105.56,0,0,1,25.93,36.4q9.38,21.4,9.37,48t-9.37,48.43a109.28,109.28,0,0,1-25.93,37.33,116.31,116.31,0,0,1-39.06,23.9,145,145,0,0,1-97.48,0,114.62,114.62,0,0,1-38.9-23.9,110.42,110.42,0,0,1-25.77-37.33Q174.7,197.39,174.69,170.83Zm79.05,0a58.26,58.26,0,0,0,3.28,20,48.25,48.25,0,0,0,9.06,15.63A39.62,39.62,0,0,0,280,216.6a42.63,42.63,0,0,0,17.49,3.59,41.28,41.28,0,0,0,31.25-13.74,46.66,46.66,0,0,0,9.21-15.63,58.26,58.26,0,0,0,3.28-20,56.06,56.06,0,0,0-3.28-19.53,41.88,41.88,0,0,0-9.21-15,42.89,42.89,0,0,0-31.25-13A44.4,44.4,0,0,0,280,126.77a40.94,40.94,0,0,0-13.91,9.53,43.18,43.18,0,0,0-9.06,15A56.06,56.06,0,0,0,253.74,170.83Z" transform="translate(-174.69 -55.22)" fill="#283fff"/>
</svg>
